<svg xmlns="http://www.w3.org/2000/svg" width="457.478" height="236.988" style="width:100%"><g fill="#29BFED"><path d="M87.602 85.072c-.012 0-.021.01-.043.021h-.053a.29.29 0 01.096-.021zm21.775-45.065c-.254.021-.508.063-.751.095l-.508.096a1.767 1.767 0 00-.339.063c-.223.053-.434.106-.646.169a8.231 8.231 0 00-.72.223 7.53 7.53 0 00-.698.254c-.698.275-1.364.613-1.989.994-.042.021-.084.053-.127.074-.709.445-1.365.953-1.968 1.514a6.054 6.054 0 00-.466.444 14.59 14.59 0 00-1.46 1.745c0 .021-.021.043-.042.064-.148.222-.297.455-.435.688-.2.328-.392.666-.55 1.016-.096.18-.17.35-.244.529-.031.042-.042.096-.053.137-.095.191-.169.393-.243.594-.053.127-.095.254-.138.381a9.562 9.562 0 00-.232.783c-.053.18-.096.359-.127.55a5.013 5.013 0 00-.138.698c-.042.18-.063.35-.085.529-.042.275-.063.55-.084.825a12.92 12.92 0 011.047-4.709 2.78 2.78 0 01.191-.401l.189-.381c.233-.477.508-.932.794-1.365a12.904 12.904 0 013.841-3.693c.117-.074.233-.138.35-.201a12.496 12.496 0 014.804-1.629.788.788 0 01.159-.021c.074-.011.137-.021.211-.021l.297-.031c.054-.013.107-.013.16-.013zm.201-.021c-.063.01-.127.01-.19.021.011-.011.021-.011.032-.011.053-.01.105-.01.158-.01zm-38.971 67.307c-.063 0-.137-.021-.211-.032a.207.207 0 01-.074-.021c.095.021.19.042.285.053zm10.413-3.895c-.275.35-.604.699-.952 1.027-.243.264-.54.539-.868.762a8.597 8.597 0 01-.529.369 2.766 2.766 0 01-.412.266 9.363 9.363 0 01-1.291.677 5.64 5.64 0 01-.635.254 1.198 1.198 0 01-.18.074c-.19.063-.371.127-.561.169-.266.085-.54.158-.815.201a.82.82 0 01-.232.053c-.011.011-.021.011-.032 0a11.824 11.824 0 001.63-.455 11.39 11.39 0 004.877-3.397zm1.501-2.337a7.924 7.924 0 01-.951 1.672c-.17.232-.34.444-.551.656a11.7 11.7 0 001.502-2.328z"/><path d="M124.064 53.402c0 5.629-3.461 10.455-8.359 12.465h-.011c-.286.116-.571.223-.857.317-.349.106-.709.201-1.069.286a11.02 11.02 0 01-.814.158 12.47 12.47 0 01-2.189.19c-1.175 0-2.297-.147-3.387-.423-.063.01-.116.021-.18.031a18.487 18.487 0 00-4.688 1.408 1.215 1.215 0 00-.116.063c-.783.35-1.534.762-2.254 1.228-.053.032-.095.085-.147.106.021.074.041.127.053.201v.01c-.012-.01-.021 0-.032.021a12.72 12.72 0 01-5.999 13.914h.042c-.562.339-1.153.625-1.767.857v-.021a3.3 3.3 0 00-.318.117l.318-.096-.678.223-.116.031-.36.116-.275.095c-.623.17-1.27.275-1.926.328-.211.021-.434.032-.645.043-.223.01-.434.021-.656.021h-.074c.021-.012.031-.021.043-.021a.301.301 0 00-.096.021h-.021c-.084 0-.169 0-.254-.012-.232.106-.455.213-.677.328a1.082 1.082 0 00-.159.074 10.632 10.632 0 00-3.375 2.212 9.678 9.678 0 00-1.535 1.862 11.152 11.152 0 012.148 6.613c0 .285-.01.571-.031.857a9.393 9.393 0 01-.085.762l-.032.189c0 .043-.01.096-.021.139l-.063.328a.787.787 0 01-.053.211c-.043.212-.096.412-.148.613a11.26 11.26 0 01-.678 1.789 11.644 11.644 0 01-.983 1.65 17.11 17.11 0 01-.519.678v.01a11.386 11.386 0 01-4.878 3.396c-.529.191-1.069.339-1.63.455-.148.021-.296.053-.443.074-.086.011-.17.021-.266.031a4.055 4.055 0 01-.349.043c-.054 0-.095.011-.148.011-.042.011-.073.011-.116.011-.138.021-.275.021-.424.021-.137.01-.274.01-.412.01-.158 0-.307 0-.465-.01-.213-.012-.424-.021-.625-.054l-.232-.032-.201-.031a14.977 14.977 0 00-.223-.031c-.096-.011-.19-.032-.285-.053-.053-.012-.117-.021-.17-.032-.105-.011-.201-.042-.307-.063-.053-.011-.116-.031-.17-.043-.222-.053-.443-.115-.666-.189s-.434-.148-.656-.233a11.177 11.177 0 01-7.279-10.189v-.317c0-2.698.952-5.186 2.539-7.121 1.65-2.031 4-3.471 6.677-3.957.37-.074.741-.117 1.122-.148l.01-.011c.307-.021.614-.032.932-.032.158 0 .328 0 .486.012a11.89 11.89 0 002.91-7.82v-.18a11.901 11.901 0 00-.836-4.223c-1.471-3.713-4.74-6.518-8.74-7.321a11.768 11.768 0 01-6.285 2.296c-.021.011-.053.011-.074.011-.201 0-.402.011-.603.011h-.063c-.381 0-.762-.021-1.143-.064a9.836 9.836 0 01-1.26-.2c-.127-.021-.243-.054-.37-.085a1.073 1.073 0 01-.254-.063 5.794 5.794 0 01-.413-.116 3.551 3.551 0 01-.539-.18 11.067 11.067 0 01-.836-.339 6.406 6.406 0 01-.613-.296.593.593 0 01-.139-.074c-3.65-2.011-6.137-5.873-6.137-10.349 0-6.486 5.27-11.734 11.767-11.734 2.392 0 4.634.72 6.497 1.968l.01.011c.266.169.529.36.773.561a11.45 11.45 0 014.285 7.376l.01.01c.043.318.085.646.106.974 0-.053.011-.095.011-.147v-.012c.021-.222.031-.443.031-.677a19.421 19.421 0 007.058 4.221c1.228.445 2.508.772 3.841.963.879.127 1.768.17 2.666.17 1.958 0 3.873-.297 5.672-.847 2.646-.825 5.037-2.233 7.047-4.032.053-.041.106-.095.159-.137 0-.043-.011-.085-.011-.127a8.222 8.222 0 01-.031-.72c-.031-.201-.031-.402-.031-.603 0-.223.031-.445.031-.667.021-.275.042-.55.084-.825.021-.18.043-.35.085-.529.032-.244.074-.477.138-.698.031-.19.074-.37.127-.55.063-.266.148-.529.232-.783.043-.127.085-.254.138-.381.074-.201.148-.402.243-.594.011-.041.021-.095.053-.137.074-.18.148-.35.244-.529.158-.35.35-.688.55-1.016.138-.232.286-.466.435-.688.021-.021.042-.043.042-.064a14.59 14.59 0 011.46-1.745c.148-.159.307-.308.466-.444a13.221 13.221 0 011.968-1.514c.043-.021.085-.053.127-.074a12.954 12.954 0 011.989-.994c.222-.096.466-.18.698-.254.232-.085.477-.158.72-.223.212-.063.423-.116.646-.169a1.68 1.68 0 01.339-.063c.169-.031.339-.063.508-.096.243-.031.497-.074.751-.095h.011c.063-.011.127-.011.19-.021.031-.012.074-.012.105-.012.043-.01.074-.01.117-.01.063-.011.116-.011.18-.011.053-.011.105-.011.148-.011.158-.011.316-.011.476-.011.233 0 .466.011.698.021 7.108.362 12.758 6.246 12.758 13.451z"/><path d="M87.484 85.094a7.342 7.342 0 00-.931.316c.222-.115.444-.222.677-.328.085.012.17.012.254.012zm.118-.022c-.012 0-.021.01-.043.021h-.053a.29.29 0 01.096-.021zm4.687-.857v.021l-.318.096a3.3 3.3 0 01.318-.117zm8.105-11.851c0 4.708-2.54 8.813-6.338 11.015h-.042a12.72 12.72 0 005.999-13.914c.011-.021.021-.031.032-.021.243.931.349 1.904.349 2.92zm8.983-32.357c-.254.021-.508.063-.751.095.095-.021.2-.042.296-.053l.297-.031c.052-.011.105-.011.158-.011zm.201-.021c-.063.01-.127.01-.19.021.011-.011.021-.011.032-.011.053-.01.105-.01.158-.01zm1.026-.053c-.159 0-.317 0-.476.011.073-.011.137-.011.211-.011h.265zm13.608 13.427c0 5.683-3.534 10.55-8.507 12.507 4.898-2.01 8.359-6.836 8.359-12.465 0-7.205-5.65-13.089-12.762-13.448 7.185.275 12.91 6.179 12.91 13.406zm-45.013 51.828a10.877 10.877 0 01-3.025 1.734c-1.217.477-2.54.73-3.916.73-6.158 0-11.184-4.994-11.184-11.163a11.175 11.175 0 007.279 10.189c.212.095.434.169.656.233.223.074.444.137.666.189.054.012.117.032.17.043.105.021.201.053.307.063.053.011.117.021.17.032.021.01.053.021.074.021.074.011.147.032.211.032l.223.031c.063.011.137.021.201.031.074.012.158.021.232.032.201.032.412.042.625.054.158.01.307.01.465.01.138 0 .275 0 .412-.01.148 0 .286 0 .424-.021.043 0 .074 0 .116-.011.054 0 .095-.011.148-.011.116-.011.233-.021.349-.043.096-.01.18-.021.266-.031.147-.011.295-.031.443-.074.011.011.021.011.032 0a.787.787 0 00.232-.053c.275-.043.55-.116.815-.201.189-.042.37-.105.561-.169a1.29 1.29 0 00.18-.074 5.64 5.64 0 00.635-.254c.455-.19.879-.423 1.291-.677.148-.074.285-.17.412-.266a7.65 7.65 0 00.53-.366z"/><path d="M87.602 85.072c-.012 0-.021.01-.043.021h-.053a.29.29 0 01.096-.021z"/></g><path fill="#FFF" d="M50.637 53.791a11.313 11.313 0 00.549 3.473c.369 1.096.879 2.143 1.607 3.032.725.884 1.568 1.685 2.55 2.317.468.351 1.009.586 1.512.9.524.272 1.077.489 1.614.771a27.14 27.14 0 01-1.753-.448c-.552-.243-1.146-.419-1.664-.745-1.091-.564-2.032-1.402-2.825-2.353-1.538-1.953-2.151-4.601-1.59-6.947z"/><path fill="#36A7CD" d="M58.006 67.623a8.414 8.414 0 01-1.27-.189 1.925 1.925 0 01-.36-.096c.127.031.243.063.37.085.412.095.836.159 1.26.2zm12.898-12.697v.012c0 .053-.011.095-.011.147a14.01 14.01 0 00-.106-.974l-.01-.01a11.446 11.446 0 00-2-4.984 11.432 11.432 0 00-2.285-2.392 8.132 8.132 0 00-.773-.561l-.01-.011a11.648 11.648 0 00-6.497-1.968c-6.497 0-11.767 5.248-11.767 11.734 0 4.476 2.486 8.338 6.137 10.349a11.744 11.744 0 01-6.221-10.381c0-6.507 5.279-11.787 11.787-11.787 2.412 0 4.666.73 6.539 1.969a12.27 12.27 0 013.111 3.025 11.736 11.736 0 012.01 5.037c.044.265.075.531.096.795zm38.78-14.951c-.031 0-.074 0-.105.012-.063.01-.127.01-.19.021h-.011c-.254.021-.508.063-.751.095l-.508.096a1.767 1.767 0 00-.339.063c-.223.053-.434.106-.646.169a8.231 8.231 0 00-.72.223 7.53 7.53 0 00-.698.254c-.698.275-1.364.613-1.989.994-.042.021-.084.053-.127.074-.709.445-1.365.953-1.968 1.514a6.054 6.054 0 00-.466.444 14.59 14.59 0 00-1.46 1.745c0 .021-.021.043-.042.064-.148.222-.297.455-.435.688-.2.328-.392.666-.55 1.016-.096.18-.17.35-.244.529-.031.042-.042.096-.053.137-.095.191-.169.393-.243.594-.053.127-.095.254-.138.381a9.562 9.562 0 00-.232.783c-.053.18-.096.359-.127.55a5.013 5.013 0 00-.138.698c-.042.18-.063.35-.085.529-.042.275-.063.55-.084.825 0 .222-.031.444-.031.667 0 .2 0 .401.031.603 0 .233.01.487.031.72 0 .042.011.084.011.127-.053.042-.106.096-.159.137-.01-.041-.021-.073-.01-.115a11.225 11.225 0 01-.063-1.207c0-2.01.444-3.926 1.237-5.64a2.78 2.78 0 01.191-.401l.189-.381c.254-.467.529-.91.848-1.344a13.423 13.423 0 014.126-3.82 13.255 13.255 0 014.814-1.725.788.788 0 01.159-.021c.232-.043.465-.063.709-.074a.712.712 0 01.266-.024zm5.153 26.21c-.614.201-1.237.36-1.884.466a13.363 13.363 0 01-5.756-.223l.18-.031c1.09.275 2.212.423 3.387.423.751 0 1.471-.063 2.189-.19.275-.042.54-.096.814-.158.361-.086.721-.181 1.07-.287zm-39.806 7.967c.01.021.01.053.021.074v.074c-.011-.052-.021-.095-.021-.148zm12.571 10.92c-.012 0-.021.01-.043.021h-.053a.29.29 0 01.096-.021zm12.792-12.708c0 4.708-2.54 8.813-6.338 11.015h-.042a12.72 12.72 0 005.999-13.914c.011-.021.021-.031.032-.021.243.931.349 1.904.349 2.92zm-12.91 12.73a7.342 7.342 0 00-.931.316c.222-.115.444-.222.677-.328.085.012.17.012.254.012z"/><path fill="#36A7CD" d="M87.602 85.072c-.012 0-.021.01-.043.021h-.053a.29.29 0 01.096-.021zm4.687-.857v.021l-.318.096a3.3 3.3 0 01.318-.117zM81.02 103.398c-.275.35-.604.699-.952 1.027-.243.264-.54.539-.868.762a10.877 10.877 0 01-3.025 1.734c-.021-.031-.021-.063-.021-.095-.011-.011-.011-.021-.011-.032a11.38 11.38 0 004.877-3.396zm1.501-2.337a7.924 7.924 0 01-.951 1.672c-.17.232-.34.444-.551.656a11.7 11.7 0 001.502-2.328zm-7.469-26.834v.074c-.011-.053-.021-.096-.021-.148.01.021.01.052.021.074z"/><path fill="#36A7CD" d="M75.052 74.227v.074c-.011-.053-.021-.096-.021-.148.01.021.01.052.021.074zm-4.116-19.978c0 .233-.01.455-.031.677v.012c0 .053-.011.095-.011.147a14.01 14.01 0 00-.106-.974l-.01-.01a11.446 11.446 0 00-2-4.984l.021-.021a11.736 11.736 0 012.01 5.037c.043.042.085.074.127.116zm11.585 46.812a7.924 7.924 0 01-.951 1.672l-.032-.021c.37-.52.698-1.069.983-1.651zm3.874-15.577a18.932 18.932 0 00-3.375 2.212 10.62 10.62 0 013.375-2.212zm1.089-.39a7.342 7.342 0 00-.931.316c.222-.115.444-.222.677-.328.085.012.17.012.254.012zm.118-.022c-.012 0-.021.01-.043.021h-.053a.29.29 0 01.096-.021zm4.687-.857v.021l-.318.096a3.3 3.3 0 01.318-.117zm7.417-38.537c0 .021-.021.043-.042.064-.148.222-.297.455-.435.688-.2.328-.392.666-.55 1.016-.096.18-.17.35-.244.529-.031.042-.042.096-.053.137-.095.191-.169.393-.243.594-.053.127-.095.254-.138.381a9.562 9.562 0 00-.232.783c-.053.18-.096.359-.127.55a5.013 5.013 0 00-.138.698c-.042.18-.063.35-.085.529-.042.275-.063.55-.084.825 0 .222-.031.444-.031.667 0 .2 0 .401.031.603 0 .233.01.487.031.72 0 .042.011.084.011.127-.053.042-.106.096-.159.137-2.01 1.799-4.401 3.207-7.047 4.032-1.799.55-3.714.847-5.672.847-.898 0-1.787-.043-2.666-.17a19.205 19.205 0 01-3.841-.963 19.487 19.487 0 006.274 1.026c4.974 0 9.502-1.852 12.941-4.888a11.225 11.225 0 01-.063-1.207c0-2.01.444-3.926 1.237-5.64a2.78 2.78 0 01.191-.401l.189-.381c.233-.477.508-.932.794-1.365l.054.021.097.041zm.688 26.686c0 4.708-2.54 8.813-6.338 11.015h-.042a12.72 12.72 0 005.999-13.914c.011-.021.021-.031.032-.021.243.931.349 1.904.349 2.92zm2-4.466c-.825.455-1.608.974-2.349 1.535-.012-.074-.032-.127-.053-.201.053-.021.095-.074.147-.106.72-.466 1.471-.878 2.255-1.228zm10.559-1.269v.021a13.363 13.363 0 01-5.756-.223l.18-.031c1.09.275 2.212.423 3.387.423.751 0 1.47-.063 2.189-.19z"/><path fill="#29BFED" d="M124.422 85.102v62.209a6.082 6.082 0 01-1.301 3.772l-.988.952a1.318 1.318 0 01-.325.253l-.036.036c-.965.614-2.133 1.024-3.375 1.024-1.253 0-2.422-.41-3.374-1.024-.036 0-.036-.036-.036-.036a1.318 1.318 0 01-.325-.253l-.976-.952a5.956 5.956 0 01-1.314-3.772V85.102c0-1.422.471-2.748 1.314-3.771.289-.398.65-.711 1.048-1 .072-.072.169-.17.253-.205.036-.037.061-.037.097-.049.952-.639 2.073-1 3.313-1 1.218 0 2.375.361 3.314 1 .036.012.061.012.097.049.085.035.181.133.253.205l1.061 1a6.038 6.038 0 011.3 3.771zm96.797 34.816v27.393c0 1.422-.518 2.724-1.338 3.772-.266.325-.59.662-.964.952a1.65 1.65 0 01-.337.253l-.025.036c-.987.614-2.133 1.024-3.373 1.024-1.266 0-2.436-.41-3.387-1.024-.012 0-.012-.036-.012-.036a1.427 1.427 0 01-.35-.253 8.127 8.127 0 01-.965-.952 5.903 5.903 0 01-1.326-3.772v-31.406c0-.252 0-.494-.012-.734v-.289l1.182.494.145.061 1.156.481.17.072 6.615 2.76.182.072 1.12.47.181.072 1.145.471.193.083zm-51.664-21.523c-.012.012-.023.023-.023.048-2.76 4.314-4.135 10.159-4.135 17.462v31.406a6.098 6.098 0 01-1.313 3.772c-.289.325-.604.662-.977.952a1.188 1.188 0 01-.338.253l-.035.036c-.965.614-2.121 1.024-3.363 1.024-1.266 0-2.422-.41-3.374-1.024-.013 0-.013-.036-.013-.036a1.101 1.101 0 01-.349-.253c-.386-.29-.699-.627-.988-.952a6.03 6.03 0 01-1.313-3.772v-31.406c0-8.772 1.65-16.232 4.893-22.234l.049.024 1.168.481.037.013 1.192.494.024.013 6.387 2.662h.012l1.218.507 1.241.53zm126.997 52.917c-4.772 1.82-10.195 2.724-16.258 2.724-11.918 0-21.354-3.41-28.031-10.087-3.868-3.868-6.628-8.628-8.267-14.257-.037-.108-.061-.217-.097-.325l1.29.542.265.109 1.337.554.277.12 9.533 3.978.361.145 2.277.952.35.145 3.471 1.446.482.205h.012c2.085 1.458 4.531 2.555 7.327 3.302.266.072.53.133.808.192.193.049.374.097.566.133h.012l4.544 1.893.192.084 3.194 1.338.241.096h.012l12.063 5.026.313.132h.012l1.566.663.35.145 1.435.603.363.142zm79.792-51.327c-.013 0-.024-.013-.049-.013-.108-.072-.229-.145-.35-.229.121.061.241.133.361.217.013.013.025.013.038.025z"/><path d="M119.217 179.379h12.449v-1.445h-12.137c-1.832 0-3.229.373-4.205 1.12-1.302 1.29-1.953 2.735-1.953 4.351 0 1.724.711 3.193 2.133 4.398 1.037.663 2.098.977 3.219.94h7.978l1.133.253c1.591.747 2.386 1.916 2.386 3.519l-.12 1.013c-.542 1.88-1.964 2.82-4.278 2.82h-12.509v1.386h12.822l1.386-.061c1.085-.277 1.965-.735 2.64-1.386.844-.988 1.325-1.988 1.446-3.013v-1.326l-.121-.819c-.192-.855-.711-1.699-1.578-2.506-.82-.724-1.783-1.134-2.893-1.266h-8.737c-.579-.036-1.241-.338-2.013-.88-.964-.88-1.445-1.88-1.445-3.013 0-.422.084-.904.252-1.446.602-1.759 1.975-2.639 4.145-2.639zm54.375 5.146c-.904-2.423-2.387-4.206-4.459-5.339-1.494-.724-2.977-1.121-4.471-1.193-2.398 0-4.266.422-5.592 1.254-.965.349-2.121 1.422-3.459 3.205v-4.519h-1.446v27.03h1.446v-11.629h.061c.217.481.807 1.169 1.76 2.072 1.988 1.591 4.133 2.387 6.41 2.387 1.109 0 2.291-.169 3.52-.494 2.604-.952 4.41-2.398 5.411-4.339.844-1.35 1.266-3.024 1.266-5.037-.001-1.47-.158-2.59-.447-3.398zm-4.531 10.316c-1.639.928-3.17 1.386-4.592 1.386h-.687c-1.53 0-3.097-.506-4.712-1.506-2.229-1.688-3.338-3.869-3.338-6.544v-.253l-.061-.061.061-.061v-.192c0-2.351.879-4.375 2.639-6.098 1.868-1.338 3.712-2.013 5.531-2.013h.387c2.482 0 4.639.988 6.471 2.952 1.217 1.699 1.82 3.507 1.82 5.411 0 2.881-1.17 5.207-3.519 6.979zm46.771-10.496c-.748-2.146-2.073-3.772-3.965-4.905-1.855-.964-3.736-1.446-5.664-1.446-3.459.145-6.135 1.543-8.039 4.206-1.096 1.855-1.639 3.724-1.639 5.604 0 3.483 1.314 6.207 3.965 8.171 1.856 1.169 3.652 1.76 5.399 1.76h.132c1.676 0 2.52-.061 2.52-.181.819 0 1.916-.41 3.266-1.205.699-.241 1.639-1.061 2.832-2.446 1.169-1.808 1.76-3.664 1.76-5.592v-.76c-.001-1.073-.194-2.134-.567-3.206zm-1.76 7.483c-.313.735-1 1.615-2.085 2.64-1.808 1.217-3.591 1.819-5.339 1.819h-.313c-.699 0-1.664-.169-2.893-.506-1.422-.566-2.543-1.313-3.398-2.254-1.338-1.639-2.013-3.507-2.013-5.604.12-1.519.325-2.651.626-3.398.664-1.591 1.771-2.868 3.339-3.833 1.603-.795 3.108-1.192 4.531-1.192 1.217.084 2.29.289 3.206.626 1.855.699 3.289 1.929 4.266 3.712.639 1.435.952 2.76.952 3.965.001 1.313-.301 2.664-.879 4.025zm35.25 4.459c-1.783 0-3.579-.566-5.411-1.699-1.47-1.361-2.374-2.471-2.699-3.326-.566-1.422-.855-2.699-.88-3.845v-8.11h8.617v-1.445h-8.617v-7.159h-1.446v16.089c0 3.024.88 5.556 2.64 7.616 2.182 2.218 4.82 3.326 7.93 3.326h.061v-1.446h-.195zm22.681-25.585v27.031h1.446v-27.031h-1.446zm23.934 0v3.254h1.398v-3.254h-1.398zm0 7.232v19.8h1.423v-19.8h-1.423zm42.396.059v4.459l-1-1.386c-2.254-2.049-4.676-3.073-7.303-3.073-2.796 0-5.23.916-7.291 2.76-.916 1.049-1.543 1.904-1.88 2.579-.675 1.819-1.013 3.326-1.013 4.531 0 1.579.397 3.242 1.193 4.965.494 1.001 1.422 2.049 2.771 3.146 2.024 1.218 3.881 1.82 5.531 1.82h.253c1.278 0 2.471-.169 3.58-.494 2.555-.952 4.242-2.278 5.098-3.965h.06v1.759c0 1.241-.192 2.374-.565 3.398-.748 1.881-1.953 3.23-3.58 4.025-.903.519-2.205.88-3.904 1.061l-.747-.12c-1.471 0-2.94-.422-4.411-1.254l-1.253-1.012c-1.146-1.277-1.796-2.41-1.952-3.398h-1.567c.217 1.458 1.013 2.952 2.387 4.471 2.145 1.796 4.374 2.699 6.664 2.699h.192c1.471 0 2.303-.06 2.52-.181 1.181-.192 2.494-.759 3.952-1.699 2.435-1.904 3.652-4.351 3.652-7.363v-17.728h-1.387zm-.626 12.955c-.193 1.024-1.013 2.218-2.459 3.579-1.819 1.182-3.519 1.76-5.085 1.76h-.699l-.566-.061c-1.013 0-2.182-.373-3.52-1.133-.494-.132-1.229-.723-2.193-1.759-1.181-1.579-1.771-3.267-1.771-5.098v-.254l-.06-.06.06-.061v-.192c0-3.146 1.435-5.532 4.278-7.171.796-.458 2.182-.795 4.158-1 .903 0 2.049.253 3.458.759.494.108 1.241.555 2.266 1.313 1.796 1.748 2.7 3.856 2.7 6.352a8.446 8.446 0 01-.567 3.026zm44.337-4.012c-.085-1.435-.326-2.495-.724-3.157-.434-1.302-1.397-2.579-2.893-3.833-2.072-1.35-4.001-2.012-5.784-2.012h-.253c-1.724 0-3.17.265-4.339.807-.903.374-1.699.832-2.374 1.374a7.548 7.548 0 00-1.964 2.278h-.061V170.63h-1.446v27.104h1.446v-9.051c0-2.76.627-4.881 1.892-6.351l.627-.699c.386-.313.783-.578 1.181-.819 1.495-.916 3.098-1.374 4.797-1.374 1.289.072 2.313.241 3.073.506 3.049 1.241 4.82 3.351 5.278 6.352.084.53.133 1.097.133 1.687v9.75h1.446v-9.496c.001-.472-.012-.906-.035-1.303z" fill="#06223B"/><circle fill="#29BFED" cx="410.401" cy="54.447" r="6.148"/><path fill="#06223B" d="M218.58 118.821l-.182-.072-6.615-2.76-.17-.072-1.156-.481-.145-.061v.289l.156.061 1.145.481.17.072 6.615 2.748.182.072 1.12.47v-.277l-1.12-.47zm-51.496-21.464l-6.387-2.662-.024-.013-1.192-.494a1.932 1.932 0 00-.133.229l1.205.494.012.012 6.387 2.663 1.218.507c.036-.072.085-.145.132-.205 0-.013 0-.024.013-.024l-1.218-.507h-.013z"/><path fill="#042139" d="M221.025 115.904v3.93l-1.145-.471-.181-.072-1.12-.47-.182-.072-6.615-2.76-.17-.072-1.156-.481-.145-.061-1.182-.494v.289l-.156-.072c-.108-8.099-2-14.39-5.604-18.68-3.7-4.447-9.003-6.616-16.174-6.616-7.193 0-12.484 2.169-16.184 6.616a16.838 16.838 0 00-1.459 1.977l-1.241-.53-1.218-.507h-.012l-6.387-2.662-.024-.013-1.192-.494-.037-.013-1.168-.481a30.065 30.065 0 013.928-5.724c5.941-6.773 14.342-10.184 24.994-10.184 10.545 0 18.934 3.41 24.898 10.184 5.932 6.699 8.932 16.111 8.932 27.933z"/><path fill="#042139" d="M219.881 119.363l-.181-.072-1.12-.47-.182-.072v.277l.182.072 1.12.47.181.072 1.145.482v-.289l-1.145-.47zM159.48 94.188l-.037-.013-1.168-.481a1.932 1.932 0 00-.133.229l1.181.481.024.013 1.205.494.012.012c.049-.072.084-.156.133-.229l-.024-.013-1.193-.493zm8.833 3.676l-1.218-.507h-.012a2.08 2.08 0 01-.133.229l1.218.507h.012l1.229.518a.797.797 0 01.121-.169c0-.024.012-.036.023-.048l-1.24-.53zm42.144 17.572l-.145-.061-1.182-.494v.289l1.182.494.156.061 1.145.481v-.289l-1.156-.481z"/><path fill="#06223B" d="M292.84 149.757h-.012l-.313-.132-12.063-5.026h-.012l-.241-.096-3.194-1.338-.192-.084a8.53 8.53 0 01-.808-.049l.133.061 3.374 1.397.241.097 12.353 5.158.302.12 1.627.675c.12-.036.253-.084.373-.12l-1.568-.663zm-33.6-13.991l-2.277-.952-.361-.145-9.533-3.978-.277-.12-1.337-.554-.265-.109c.023.109.06.217.096.326l.277.12 1.338.554.301.121 9.714 4.049.386.157 2.41 1.012a15.418 15.418 0 01-.472-.481z"/><path fill="#042139" d="M305.168 144.382c0 .013 0 .013-.036.049-.301 1.277-1.048 2.386-2.049 3.205-.023.013-.072.049-.108.072a4.75 4.75 0 01-.892.555 33.867 33.867 0 01-5.893 2.904l-1.435-.603-.35-.145-1.566-.663h-.012l-.313-.132-12.063-5.026h-.012l-.241-.096-3.194-1.338-.192-.084-4.544-1.893h-.012c-.192-.036-.373-.084-.566-.133 2.495.543 5.23.82 8.231.82 6.363 0 11.605-1.242 15.679-3.725.241-.181.506-.361.759-.506s.53-.253.819-.361c.024-.024.061-.024.109-.024a5.263 5.263 0 012.145-.373c.35 0 .711.048 1.049.145a.84.84 0 01.277.048 5.943 5.943 0 012.964 1.747c.013.036.049.036.072.085.398.434.735.916.977 1.47.205.482.397.965.47 1.495a6.317 6.317 0 01-.073 2.507zm2.965-56.605c-6.7-6.749-16.125-10.123-28.079-10.123-11.955 0-21.416 3.374-28.08 10.123-6.688 6.713-10.063 16.137-10.063 28.127 0 5.002.603 9.557 1.796 13.667l.289.12c-.037-.108-.061-.217-.097-.325l1.29.542.265.109 1.337.554.277.12 9.533 3.978.361.145 2.277.952.35.145 3.471 1.446a13.426 13.426 0 01-1.241-.952c-4.001-3.35-6.483-8.207-7.424-14.486h57.75c1.615 0 3.037-.541 4.206-1.687 1.205-1.146 1.844-2.603 1.844-4.459 0-11.859-3.398-21.283-10.062-27.996zm-28.079 1.905c7.784 0 13.943 1.867 18.306 5.52 4.013 3.41 6.52 8.352 7.46 14.689h-51.424c.844-6.338 3.314-11.279 7.352-14.689 4.361-3.653 10.496-5.52 18.306-5.52z"/><path fill="#042139" d="M294.756 150.564l-.35-.145-1.566-.663h-.012l-.313-.132c-.133.048-.277.084-.41.12l.302.12 1.627.675.337.146 1.482.614c.108-.036.229-.085.338-.133l-1.435-.602zm-17.752-7.399l-.192-.084-4.544-1.893h-.012c-.192-.036-.373-.084-.566-.133-.277-.06-.542-.12-.808-.192-.084-.024-.156-.036-.24-.061l5.362 2.229.133.061 3.374 1.397c.133.013.266.013.41.013h.277l-3.194-1.337zm-13.943-5.809l-3.471-1.446-.35-.145-2.277-.952-.361-.145c.108.145.205.276.313.409l.386.157 2.41 1.012.386.157 4.085 1.699a10.85 10.85 0 01-1.121-.746zm-16.27-6.785l-1.337-.554-.265-.109-1.29-.542c.036.108.06.217.097.325l1.289.543.277.12 1.338.554c-.037-.107-.084-.217-.109-.337z"/><path fill="#06223B" d="M378.682 51.479s0 .012.012.012v-.012h-.012z"/><path fill="#042139" d="M373.438 49.249c-.012 0-.023 0-.048.013-.012 0-.024 0-.036.012.024-.012.061-.012.084-.012.061 0 .121-.013.182-.013h-.182zm5.244 2.23s0 .012.012.012v-.012h-.012zm.686 6.423a.713.713 0 01-.061.145 3.57 3.57 0 00.229-.494c-.048.12-.107.228-.168.349z"/><path fill="#042139" d="M379.995 54.985v.253c0 .229-.013.459-.036.688a4.2 4.2 0 01-.121.675 5.386 5.386 0 01-.181.639c-.036.108-.072.217-.12.313-.049.12-.108.229-.169.35a.713.713 0 01-.061.145l-.072.145v.023a4.043 4.043 0 01-.542.783 8.58 8.58 0 01-.555.639.442.442 0 01-.156.098 5.805 5.805 0 01-.76.59c-.265.169-.53.326-.819.458a6.21 6.21 0 01-1.892.507h-.049c-.048 0-.108.012-.156.012-6.242.639-11.28 2.771-14.992 6.363-4.387 4.361-6.592 10.882-6.592 19.365V99.01h19.619c.302 0 .591.024.88.072.302.036.591.097.868.192.277.085.542.182.795.314h.013c.265.133.506.265.734.422h.013c.023.023.061.023.084.048.133.084.217.157.325.265h.013c.023.024.048.037.072.061.12.084.229.169.337.277a.35.35 0 01.097.096c.169.145.325.326.47.507.097.12.181.241.266.374.012.012.023.035.036.06.096.145.181.302.265.458.061.108.121.217.169.338a.402.402 0 01.072.168c.036.061.061.121.084.182.266.687.422 1.422.422 2.181 0 .35-.036.699-.096 1.036a6.033 6.033 0 01-.675 1.893c-.169.289-.35.566-.555.832-.024.035-.061.072-.085.107a2.115 2.115 0 01-.276.289 2.876 2.876 0 01-.398.374 4.691 4.691 0 01-.542.435l-.023.023c-.121.084-.254.156-.387.229-.156.098-.325.17-.493.254-.121.048-.229.096-.35.145-.121.048-.241.084-.362.121a5.05 5.05 0 01-.867.204 5.518 5.518 0 01-.904.072h-19.619v36.178a5.86 5.86 0 01-1.325 3.736l-.965.964a6.003 6.003 0 01-3.748 1.313 5.942 5.942 0 01-3.724-1.313l-.976-.976a5.94 5.94 0 01-1.313-3.725V87.029c0-11.882 3.398-21.27 10.063-27.959 5.616-5.592 13.147-8.881 22.476-9.785h.048a.135.135 0 01.097-.012c.024-.012.061-.012.084-.012.061 0 .121-.013.182-.013h.072c.12-.013.229-.013.349 0 .085 0 .182 0 .266.013.108 0 .217.012.325.023.217.012.434.049.639.108l.157.036c.12.024.229.049.337.084.205.072.41.145.603.229.205.085.397.169.578.277.121.06.241.132.35.217.024.013.049.024.085.048a.232.232 0 01.072.072h.012c.325.217.627.471.904.771.096.097.181.205.265.301l.024.037h.012l.013.012s0 .012.012.012c.35.471.65.977.867 1.531.061.145.108.289.157.434.048.145.084.289.12.445.036.121.061.242.072.362.013.048.024.097.036.157.013.096.024.204.036.301.009.087.021.183.009.267zm36.286 30.213v62.016c0 1.423-.506 2.712-1.325 3.761l-.965.939a1.65 1.65 0 01-.337.253l-.024.036c-.976.627-2.146 1.024-3.362 1.024a6.09 6.09 0 01-3.374-1.024c-.013 0-.013-.036-.013-.036a1.46 1.46 0 01-.349-.253l-.965-.939a5.869 5.869 0 01-1.325-3.761V85.198c0-1.423.47-2.747 1.325-3.761.29-.409.651-.711 1.037-1 .084-.072.156-.168.276-.205.013-.035.049-.035.072-.047a5.866 5.866 0 013.314-1.001c1.205 0 2.362.361 3.314 1.001.012.012.048.012.072.047.108.037.181.133.265.205l1.037 1a5.993 5.993 0 011.327 3.761z"/><path fill="#06223B" d="M377.38 50.285c-.036-.023-.061-.035-.085-.048a2.017 2.017 0 00-.35-.217c.121.06.241.132.35.204.036.013.06.038.085.061zm1.289 1.182h-.012l-.024-.037c-.084-.096-.169-.204-.265-.301.096.084.181.193.277.301l.024.037zm.639 6.58c-.012.048-.036.096-.06.145v.023c-.157.289-.35.555-.555.783.205-.229.386-.494.542-.783v-.023l.073-.145zm.699-2.797c0 .229-.012.447-.048.676.023-.229.036-.458.036-.688v-.253c.012.085.012.169.012.265zm-2.422 52.701a6.245 6.245 0 01-.543.832c-.036.035-.06.072-.097.107.024-.035.061-.072.085-.107.205-.265.386-.543.555-.832zm3.784 75.863c-.446-1.313-1.41-2.604-2.917-3.869-2.085-1.35-4.025-2.024-5.82-2.024h-.254c-1.735 0-3.193.277-4.362.832-.855.361-1.615.783-2.277 1.289l1.688.711a9.023 9.023 0 014.699-1.313c1.302.072 2.338.253 3.109.506 3.037 1.241 4.797 3.326 5.291 6.279l1.555.662c-.086-1.386-.327-2.41-.712-3.073zm-19.246-5.279l1.458.604v-8.557h-1.458v7.953zm53.158 17.873c-1.796 0-3.604-.566-5.436-1.712-1.494-1.361-2.398-2.482-2.724-3.351-.578-1.422-.867-2.711-.892-3.868v-8.158h8.677v-1.458h-8.677v-7.22h-1.458v16.209c0 3.037.892 5.592 2.663 7.665 2.193 2.229 4.856 3.351 7.979 3.351h.06v-1.458h-.192z"/></svg>